<svg width="23" height="29" viewBox="0 0 23 29" fill="none" xmlns="http://www.w3.org/2000/svg">
<path d="M11.832 28.494C9.75467 28.494 7.96867 28.1013 6.474 27.316C4.97933 26.5307 3.76333 25.4667 2.826 24.124C1.88867 22.7813 1.192 21.2867 0.736 19.64C0.305333 17.968 0.0900001 16.258 0.0900001 14.51C0.0900001 12.686 0.305333 10.9507 0.736 9.304C1.192 7.65733 1.88867 6.21333 2.826 4.972C3.78867 3.70533 5.00467 2.71733 6.474 2.008C7.96867 1.27333 9.75467 0.905998 11.832 0.905998C13.8587 0.905998 15.6193 1.248 17.114 1.932C18.634 2.616 19.8753 3.566 20.838 4.782C21.8007 5.97267 22.4593 7.35333 22.814 8.924L19.432 9.608C19.0013 7.96133 18.1273 6.606 16.81 5.542C15.4927 4.478 13.8333 3.946 11.832 3.946C10.008 3.946 8.47533 4.41467 7.234 5.352C6.018 6.264 5.09333 7.518 4.46 9.114C3.82667 10.6847 3.51 12.458 3.51 14.434C3.51 16.486 3.82667 18.348 4.46 20.02C5.09333 21.692 6.018 23.022 7.234 24.01C8.47533 24.9727 10.008 25.454 11.832 25.454C13.8333 25.454 15.4927 24.922 16.81 23.858C18.1273 22.7687 19.0013 21.4133 19.432 19.792L22.814 20.476C22.4593 22.0213 21.8007 23.402 20.838 24.618C19.8753 25.834 18.634 26.784 17.114 27.468C15.6193 28.152 13.8587 28.494 11.832 28.494Z" fill="#0062B2"/>
</svg>
