<?xml version="1.0" standalone="no"?>
<!DOCTYPE svg PUBLIC "-//W3C//DTD SVG 20010904//EN"
 "http://www.w3.org/TR/2001/REC-SVG-20010904/DTD/svg10.dtd">
<svg version="1.0" xmlns="http://www.w3.org/2000/svg"
 width="683.000000pt" height="684.000000pt" viewBox="0 0 683.000000 684.000000"
 preserveAspectRatio="xMidYMid meet">

<g transform="translate(0.000000,684.000000) scale(0.100000,-0.100000)"
fill="#000000" stroke="none">
<path d="M0 3420 l0 -3420 3415 0 3415 0 0 3420 0 3420 -3415 0 -3415 0 0
-3420z m3595 1796 c345 -54 640 -230 841 -502 281 -380 327 -889 117 -1309
-219 -439 -652 -707 -1139 -706 -594 2 -1088 392 -1236 977 -20 78 -23 114
-23 289 0 185 2 207 27 301 62 232 166 418 323 578 109 111 198 175 340 246
246 123 497 165 750 126z m195 -3001 c196 -26 352 -66 532 -136 503 -196 945
-608 1174 -1094 60 -129 60 -130 -11 -188 -403 -330 -910 -562 -1455 -666
-441 -83 -914 -75 -1350 25 -494 112 -957 332 -1319 627 -54 44 -71 64 -71 83
0 14 18 65 41 112 272 572 790 1007 1399 1175 91 25 277 62 350 70 104 11 613
5 710 -8z"/>
</g>
</svg>
