<svg width="49" height="45" viewBox="0 0 49 45" fill="none" xmlns="http://www.w3.org/2000/svg">
<path d="M39.2001 9C39.2001 6.51797 37.0027 4.5 34.3 4.5H19.3933C18.0918 4.5 16.8438 4.97109 15.925 5.81484L11.2318 10.125C10.313 10.9688 9.80005 12.1148 9.80005 13.3102V36C9.80005 38.482 11.9974 40.5 14.7 40.5H34.3C37.0027 40.5 39.2001 38.482 39.2001 36V9ZM22.05 10.6875V14.0625C22.05 14.9977 21.2308 15.75 20.2125 15.75C19.1943 15.75 18.375 14.9977 18.375 14.0625V10.6875C18.375 9.75234 19.1943 9 20.2125 9C21.2308 9 22.05 9.75234 22.05 10.6875ZM28.7875 10.6875V14.0625C28.7875 14.9977 27.9683 15.75 26.95 15.75C25.9318 15.75 25.1125 14.9977 25.1125 14.0625V10.6875C25.1125 9.75234 25.9318 9 26.95 9C27.9683 9 28.7875 9.75234 28.7875 10.6875ZM35.525 10.6875V14.0625C35.525 14.9977 34.7058 15.75 33.6875 15.75C32.6693 15.75 31.85 14.9977 31.85 14.0625V10.6875C31.85 9.75234 32.6693 9 33.6875 9C34.7058 9 35.525 9.75234 35.525 10.6875Z" fill="#6E7389"/>
</svg>
