<svg width="56" height="56" viewBox="0 0 56 56" fill="none" xmlns="http://www.w3.org/2000/svg">
<g clip-path="url(#clip0_94_2)">
<path d="M56 0H0V56H56V0Z" fill="white"/>
<path d="M28.5 44C35.4036 44 41 37.9558 41 30.5C41 23.0442 35.4036 17 28.5 17C21.5964 17 16 23.0442 16 30.5C16 37.9558 21.5964 44 28.5 44Z" fill="#EE4F4F"/>
<path d="M19 35C24.5228 35 29 29.6274 29 23C29 16.3726 24.5228 11 19 11C13.4772 11 9 16.3726 9 23C9 29.6274 13.4772 35 19 35Z" fill="#EE4F4F"/>
<path d="M37 33C43.0751 33 48 28.0751 48 22C48 15.9249 43.0751 11 37 11C30.9249 11 26 15.9249 26 22C26 28.0751 30.9249 33 37 33Z" fill="#EE4F4F"/>
<path d="M38.7537 12.6C36.365 12.6 34.1162 13.7463 32.7162 15.68L29.7062 19.845C29.3125 20.3875 28.6825 20.7113 28.0087 20.7113C27.335 20.7113 26.705 20.3875 26.3112 19.845L23.3012 15.68C21.9012 13.7463 19.6525 12.6 17.2637 12.6C13.1512 12.6 9.81748 15.9338 9.81748 20.0463C9.81748 24.4125 12.6175 28.6563 15.7762 32.4975C19.3725 36.8725 23.7737 40.7225 26.7925 43.0238C27.0725 43.2338 27.4837 43.3913 28.0175 43.3913C28.5512 43.3913 28.9625 43.2338 29.2425 43.0238C32.2612 40.7225 36.6625 36.8638 40.2587 32.4975C43.4262 28.6563 46.2175 24.4125 46.2175 20.0463C46.2175 15.9338 42.8837 12.6 38.7712 12.6H38.7537ZM29.3125 13.2213C31.5 10.1938 35.0175 8.40002 38.7537 8.40002C45.185 8.40002 50.4 13.615 50.4 20.0463C50.4 26.0488 46.6462 31.325 43.4787 35.1663C39.62 39.8563 34.965 43.925 31.7712 46.3575C30.695 47.18 29.365 47.5913 28 47.5913C26.635 47.5913 25.305 47.18 24.2287 46.3575C21.035 43.925 16.38 39.8563 12.5212 35.175C9.35373 31.3338 5.59998 26.0488 5.59998 20.0463C5.59998 13.615 10.815 8.40002 17.2462 8.40002C20.9825 8.40002 24.5 10.1938 26.6875 13.2213L28 15.0325L29.3125 13.2213Z" fill="black"/>
</g>
<defs>
<clipPath id="clip0_94_2">
<rect width="56" height="56" fill="white"/>
</clipPath>
</defs>
</svg>
