<svg width="78" height="84" viewBox="0 0 78 84" fill="none" xmlns="http://www.w3.org/2000/svg">
<path d="M22.3154 18.0336C20.7919 16.393 18.3179 16.393 16.7944 18.0336C15.271 19.6743 15.271 22.3386 16.7944 23.9793L33.5401 41.9999L16.8066 60.0336C15.2832 61.6743 15.2832 64.3386 16.8066 65.9793C18.3301 67.6199 20.8041 67.6199 22.3276 65.9793L39.061 47.9455L55.8066 65.9661C57.3301 67.6068 59.8041 67.6068 61.3276 65.9661C62.851 64.3255 62.851 61.6611 61.3276 60.0205L44.5819 41.9999L61.3154 23.9661C62.8388 22.3255 62.8388 19.6611 61.3154 18.0205C59.7919 16.3799 57.3179 16.3799 55.7944 18.0205L39.061 36.0543L22.3154 18.0336Z" fill="#992A2A"/>
</svg>
