<svg width="75" height="66" viewBox="0 0 75 66" fill="none" xmlns="http://www.w3.org/2000/svg">
<path d="M11.25 16.5C11.25 14.6747 12.9258 13.2 15 13.2H60C62.0742 13.2 63.75 14.6747 63.75 16.5C63.75 18.3253 62.0742 19.8 60 19.8H15C12.9258 19.8 11.25 18.3253 11.25 16.5ZM11.25 33C11.25 31.1747 12.9258 29.7 15 29.7H60C62.0742 29.7 63.75 31.1747 63.75 33C63.75 34.8253 62.0742 36.3 60 36.3H15C12.9258 36.3 11.25 34.8253 11.25 33ZM63.75 49.5C63.75 51.3253 62.0742 52.8 60 52.8H15C12.9258 52.8 11.25 51.3253 11.25 49.5C11.25 47.6747 12.9258 46.2 15 46.2H60C62.0742 46.2 63.75 47.6747 63.75 49.5Z" fill="black"/>
</svg>
