<svg width="49" height="48" viewBox="0 0 49 48" fill="none" xmlns="http://www.w3.org/2000/svg">
<path d="M16.3155 9.65995L15.5192 12H9.80002C7.09737 12 4.90002 14.1525 4.90002 16.8V36C4.90002 38.6474 7.09737 40.7999 9.80002 40.7999H39.2C41.9027 40.7999 44.1 38.6474 44.1 36V16.8C44.1 14.1525 41.9027 12 39.2 12H33.4808L32.6846 9.65995C32.1869 8.18995 30.7858 7.19995 29.201 7.19995H19.7991C18.2142 7.19995 16.8132 8.18995 16.3155 9.65995ZM24.5 19.2C28.5578 19.2 31.85 22.425 31.85 26.4C31.85 30.375 28.5578 33.5999 24.5 33.5999C20.4422 33.5999 17.15 30.375 17.15 26.4C17.15 22.425 20.4422 19.2 24.5 19.2Z" fill="#6E7389"/>
</svg>
