<svg width="60" height="67" viewBox="0 0 60 67" fill="none" xmlns="http://www.w3.org/2000/svg">
<path d="M30 21.775C27.1031 21.775 24.75 19.1474 24.75 15.9125C24.75 12.6777 27.1031 10.05 30 10.05C32.8969 10.05 35.25 12.6777 35.25 15.9125C35.25 19.1474 32.8969 21.775 30 21.775ZM30 45.2251C32.8969 45.2251 35.25 47.8527 35.25 51.0876C35.25 54.3224 32.8969 56.9501 30 56.9501C27.1031 56.9501 24.75 54.3224 24.75 51.0876C24.75 47.8527 27.1031 45.2251 30 45.2251ZM35.25 33.5C35.25 36.7349 32.8969 39.3626 30 39.3626C27.1031 39.3626 24.75 36.7349 24.75 33.5C24.75 30.2652 27.1031 27.6376 30 27.6376C32.8969 27.6376 35.25 30.2652 35.25 33.5Z" fill="white"/>
<path d="M30 26.5C27.1031 26.5 24.75 24.1469 24.75 21.25C24.75 18.3531 27.1031 16 30 16C32.8969 16 35.25 18.3531 35.25 21.25C35.25 24.1469 32.8969 26.5 30 26.5ZM30 47.5C32.8969 47.5 35.25 49.8531 35.25 52.75C35.25 55.6469 32.8969 58 30 58C27.1031 58 24.75 55.6469 24.75 52.75C24.75 49.8531 27.1031 47.5 30 47.5ZM35.25 37C35.25 39.8969 32.8969 42.25 30 42.25C27.1031 42.25 24.75 39.8969 24.75 37C24.75 34.1031 27.1031 31.75 30 31.75C32.8969 31.75 35.25 34.1031 35.25 37Z" fill="#797979"/>
</svg>
