<svg width="54" height="44" viewBox="0 0 54 44" fill="none" xmlns="http://www.w3.org/2000/svg">
<g clip-path="url(#clip0_94_16)">
<path d="M7.02469 21.8025C7.58703 20.6625 7.39344 19.3575 6.50844 18.36C5.17172 16.8525 4.425 15.0825 4.425 13.2C4.425 8.19 10.0023 3.6 17.7 3.6C25.3977 3.6 30.975 8.19 30.975 13.2C30.975 18.21 25.3977 22.8 17.7 22.8C16.2342 22.8 14.833 22.6275 13.5239 22.3125C12.5744 22.08 11.5511 22.125 10.6292 22.425L5.98297 23.94L7.03391 21.8025H7.02469ZM0 13.2C0 15.885 1.06938 18.3825 2.92234 20.46L0.175156 26.04C0.0553126 26.28 0 26.535 0 26.79C0 27.9 1.10625 28.8 2.47062 28.8C2.78406 28.8 3.0975 28.7475 3.3925 28.6575L12.2702 25.77C13.9848 26.1825 15.8102 26.4 17.7 26.4C27.4719 26.4 35.4 20.49 35.4 13.2C35.4 5.91 27.4719 0 17.7 0C7.92812 0 0 5.91 0 13.2ZM35.4 40.8C37.2991 40.8 39.1152 40.575 40.8298 40.17L49.7075 43.0575C50.0025 43.155 50.3159 43.2 50.6294 43.2C51.9938 43.2 53.1 42.3 53.1 41.19C53.1 40.935 53.0355 40.68 52.9248 40.44L50.1869 34.86C52.0306 32.775 53.1092 30.2775 53.1092 27.6C53.1092 21.42 47.4213 16.2375 39.742 14.7975C39.5945 16.02 39.2719 17.19 38.8109 18.315C44.7017 19.425 48.6934 23.3625 48.6934 27.6075C48.6934 29.49 47.9467 31.26 46.61 32.7675C45.725 33.765 45.5314 35.0625 46.0938 36.21L47.1447 38.3475L42.4984 36.8325C41.5766 36.5325 40.5533 36.495 39.6038 36.72C38.2947 37.035 36.8934 37.2075 35.4277 37.2075C28.7717 37.2075 23.7106 33.78 22.4569 29.6175C21.0188 29.8575 19.5345 29.9925 18.0227 30.0075C19.5345 36.15 26.7528 40.8075 35.4277 40.8075L35.4 40.8Z" fill="black"/>
</g>
<defs>
<clipPath id="clip0_94_16">
<rect width="54" height="44" fill="white"/>
</clipPath>
</defs>
</svg>
