<svg width="66" height="62" viewBox="0 0 66 62" fill="none" xmlns="http://www.w3.org/2000/svg">
<path d="M26.7197 7.12031C27.0291 5.68656 28.38 4.64999 29.9475 4.64999H36.1144C37.6819 4.64999 39.0328 5.68656 39.3422 7.12031L40.8375 13.9016C42.2916 14.4828 43.6528 15.2287 44.8903 16.1103L51.8822 13.9306C53.3672 13.4656 54.9966 14.0469 55.7803 15.3256L58.8638 20.3437C59.6475 21.6225 59.3691 23.2306 58.1934 24.2091L52.6969 28.8009C52.7897 29.5178 52.8309 30.2541 52.8309 31C52.8309 31.7459 52.7794 32.4822 52.6969 33.1991L58.2038 37.8006C59.3794 38.7791 59.6475 40.3969 58.8741 41.6659L55.7906 46.6841C55.0069 47.9531 53.3775 48.5441 51.8925 48.0791L44.9006 45.8994C43.6528 46.7809 42.2916 47.5172 40.8478 48.1081L39.3628 54.8797C39.0431 56.3231 37.6922 57.35 36.135 57.35H29.9681C28.4006 57.35 27.0497 56.3134 26.7403 54.8797L25.2553 48.1081C23.8013 47.5269 22.4503 46.7809 21.2025 45.8994L14.1797 48.0791C12.6947 48.5441 11.0653 47.9628 10.2816 46.6841L7.19813 41.6659C6.41438 40.3872 6.69281 38.7791 7.86844 37.8006L13.3753 33.1991C13.2825 32.4822 13.2413 31.7459 13.2413 31C13.2413 30.2541 13.2928 29.5178 13.3753 28.8009L7.86844 24.1994C6.69281 23.2209 6.42469 21.6031 7.19813 20.3341L10.2816 15.3159C11.0653 14.0372 12.6947 13.4559 14.1797 13.9209L21.1716 16.1006C22.4194 15.2191 23.7806 14.4828 25.2244 13.8919L26.7197 7.12031ZM33.0309 38.75C37.5891 38.7306 41.2706 35.2528 41.25 30.9709C41.2294 26.6891 37.5272 23.2306 32.9691 23.25C28.4109 23.2694 24.7294 26.7472 24.75 31.0291C24.7706 35.3109 28.4728 38.7694 33.0309 38.75Z" fill="black"/>
</svg>
