<svg width="54" height="47" viewBox="0 0 54 47" fill="none" xmlns="http://www.w3.org/2000/svg">
<path d="M13.5 7.05005C10.5215 7.05005 8.09998 9.15771 8.09998 11.75V35.25C8.09998 37.8424 10.5215 39.9501 13.5 39.9501H40.5C43.4784 39.9501 45.9 37.8424 45.9 35.25V11.75C45.9 9.15771 43.4784 7.05005 40.5 7.05005H13.5ZM18.9 12.925C21.1359 12.925 22.95 14.504 22.95 16.45C22.95 18.3961 21.1359 19.975 18.9 19.975C16.664 19.975 14.85 18.3961 14.85 16.45C14.85 14.504 16.664 12.925 18.9 12.925ZM31.05 21.15C31.7587 21.15 32.4084 21.4732 32.7797 21.9946L40.2047 32.5696C40.5844 33.113 40.6012 33.796 40.2469 34.3541C39.8925 34.9122 39.209 35.25 38.475 35.25H15.525C14.774 35.25 14.0737 34.8829 13.7278 34.3027C13.3819 33.7226 13.4325 33.0175 13.8628 32.4815L18.5878 26.6065C18.9675 26.1365 19.5834 25.8574 20.25 25.8574C20.9165 25.8574 21.5325 26.1365 21.9122 26.6065L24.1397 29.3824L29.3203 22.0019C29.6915 21.4805 30.3412 21.1574 31.05 21.1574V21.15Z" fill="#6E7389"/>
</svg>
