<svg width="88" height="88" viewBox="0 0 88 88" fill="none" xmlns="http://www.w3.org/2000/svg">
<g clip-path="url(#clip0_74_26)">
<path d="M80.3549 43.714C81.2935 44.1984 81.9154 45.1447 81.9789 46.1558C82.0424 47.1668 81.5093 48.0484 80.6192 48.4303L35.4484 67.7545C34.1833 68.2936 32.6352 67.9395 31.5679 66.8723C30.5369 65.8413 30.1657 64.3539 30.6311 63.1189L36.2238 48.204C36.611 47.1635 37.5739 46.491 38.717 46.4659L52.8724 46.0324C53.6385 46.0068 54.1871 45.4002 54.1439 44.6302C54.1008 43.8602 53.4733 43.1808 52.7067 43.0762L38.4264 41.0355C37.2725 40.868 36.2351 40.0902 35.7221 39.0061L28.4004 23.3127C27.7933 22.0176 27.9996 20.5626 28.9211 19.641C29.8751 18.687 31.3932 18.5048 32.7269 19.1895L80.3549 43.714Z" fill="#7C7C7C"/>
</g>
<defs>
<clipPath id="clip0_74_26">
<rect width="65.7124" height="58.7384" fill="white" transform="translate(41.5342) rotate(45)"/>
</clipPath>
</defs>
</svg>
