<svg width="50" height="50" viewBox="0 0 50 50" fill="none" xmlns="http://www.w3.org/2000/svg">
<path d="M41.8438 6.69531C40.1328 4.98437 37.3672 4.98437 35.6563 6.69531L33.75 8.60156L41.3984 16.25L43.3047 14.3438C45.0156 12.6328 45.0156 9.86719 43.3047 8.15625L41.8438 6.69531ZM18.4688 23.8828C17.9922 24.3594 17.625 24.9453 17.4141 25.5938L15.1016 32.5312C14.875 33.2031 15.0547 33.9453 15.5547 34.4531C16.0547 34.9609 16.7969 35.1328 17.4766 34.9062L24.4141 32.5938C25.0547 32.3828 25.6406 32.0156 26.125 31.5391L38.75 18.8984L31.1016 11.25L18.4688 23.8828ZM12.5 10C8.35938 10 5 13.3594 5 17.5V37.5C5 41.6406 8.35938 45 12.5 45H32.5C36.6406 45 40 41.6406 40 37.5V30C40 28.6172 38.8828 27.5 37.5 27.5C36.1172 27.5 35 28.6172 35 30V37.5C35 38.8828 33.8828 40 32.5 40H12.5C11.1172 40 10 38.8828 10 37.5V17.5C10 16.1172 11.1172 15 12.5 15H20C21.3828 15 22.5 13.8828 22.5 12.5C22.5 11.1172 21.3828 10 20 10H12.5Z" fill="black"/>
</svg>
