<svg width="64" height="60" viewBox="0 0 64 60" fill="none" xmlns="http://www.w3.org/2000/svg">
<path d="M38.4 9H51.2C52.97 9 54.4 10.3406 54.4 12C54.4 13.6594 52.97 15 51.2 15H39.84C39.32 17.4187 37.55 19.4156 35.2 20.3719V48H51.2C52.97 48 54.4 49.3406 54.4 51C54.4 52.6594 52.97 54 51.2 54H12.8C11.03 54 9.60004 52.6594 9.60004 51C9.60004 49.3406 11.03 48 12.8 48H28.8V20.3719C26.45 19.4062 24.68 17.4094 24.16 15H12.8C11.03 15 9.60004 13.6594 9.60004 12C9.60004 10.3406 11.03 9 12.8 9H25.6C27.06 7.18125 29.38 6 32 6C34.62 6 36.94 7.18125 38.4 9ZM43.96 36H58.44L51.2 24.3562L43.96 36ZM51.2 45C44.91 45 39.68 41.8125 38.6 37.6031C38.34 36.5719 38.7 35.5125 39.27 34.5938L48.79 19.2938C49.29 18.4875 50.21 18 51.2 18C52.19 18 53.11 18.4969 53.61 19.2938L63.13 34.5938C63.7 35.5125 64.06 36.5719 63.8 37.6031C62.72 41.8031 57.49 45 51.2 45ZM12.68 24.3562L5.44004 36H19.93L12.68 24.3562ZM0.0900442 37.6031C-0.169956 36.5719 0.190044 35.5125 0.760044 34.5938L10.28 19.2938C10.78 18.4875 11.7 18 12.69 18C13.68 18 14.6 18.4969 15.1 19.2938L24.62 34.5938C25.19 35.5125 25.55 36.5719 25.29 37.6031C24.21 41.8031 18.98 45 12.69 45C6.40004 45 1.17004 41.8125 0.0900442 37.6031Z" fill="#3978EE"/>
</svg>
