<svg width="60" height="59" viewBox="0 0 60 59" fill="none" xmlns="http://www.w3.org/2000/svg">
<path d="M30 7.375C35.3812 7.375 39.75 11.6709 39.75 16.9625C39.75 22.2541 35.3812 26.55 30 26.55C24.6187 26.55 20.25 22.2541 20.25 16.9625C20.25 11.6709 24.6187 7.375 30 7.375ZM9 14.0125C12.7312 14.0125 15.75 16.9809 15.75 20.65C15.75 24.3191 12.7312 27.2875 9 27.2875C5.26875 27.2875 2.25 24.3191 2.25 20.65C2.25 16.9809 5.26875 14.0125 9 14.0125ZM0 44.25C0 37.7323 5.37188 32.45 12 32.45C13.2 32.45 14.3625 32.6252 15.4594 32.9478C12.375 36.3403 10.5 40.8206 10.5 45.725V47.2C10.5 48.2509 10.725 49.2466 11.1281 50.15H3C1.34062 50.15 0 48.8317 0 47.2V44.25ZM48.8719 50.15C49.275 49.2466 49.5 48.2509 49.5 47.2V45.725C49.5 40.8206 47.625 36.3403 44.5406 32.9478C45.6375 32.6252 46.8 32.45 48 32.45C54.6281 32.45 60 37.7323 60 44.25V47.2C60 48.8317 58.6594 50.15 57 50.15H48.8719ZM44.25 20.65C44.25 16.9809 47.2687 14.0125 51 14.0125C54.7313 14.0125 57.75 16.9809 57.75 20.65C57.75 24.3191 54.7313 27.2875 51 27.2875C47.2687 27.2875 44.25 24.3191 44.25 20.65ZM15 45.725C15 37.5756 21.7125 30.975 30 30.975C38.2875 30.975 45 37.5756 45 45.725V47.2C45 48.8317 43.6594 50.15 42 50.15H18C16.3406 50.15 15 48.8317 15 47.2V45.725Z" fill="black"/>
</svg>
